Coordinates
version=1
nRows=11
nColumns=36
inDegrees=yes

Units are S.I. units (second, meters, Newtons, ...)
If the header above contains a line with 'inDegrees', this indicates whether rotational values are in degrees (yes) or radians (no).

endheader
time	pelvis_tilt	pelvis_list	pelvis_rotation	pelvis_tx	pelvis_ty	pelvis_tz	hip_flexion_r	hip_adduction_r	hip_rotation_r	knee_angle_r	knee_angle_r_beta	ankle_angle_r	subtalar_angle_r	mtp_angle_r	hip_flexion_l	hip_adduction_l	hip_rotation_l	knee_angle_l	knee_angle_l_beta	ankle_angle_l	subtalar_angle_l	mtp_angle_l	lumbar_extension	lumbar_bending	lumbar_rotation	arm_flex_r	arm_add_r	arm_rot_r	elbow_flex_r	pro_sup_r	arm_flex_l	arm_add_l	arm_rot_l	elbow_flex_l	pro_sup_l
      5.55000000	      3.43500557	     -5.75589475	      1.26387313	      0.18006891	      0.87683797	      0.01434733	     28.92843778	      2.37292102	     -4.65271228	     15.14636963	      0.26435402	     -3.57432880	     -2.18199232	     -7.49999987	      2.47340414	      0.79251458	     -3.33534312	      9.43184940	      0.16461683	     14.84797676	      7.11764147	     -7.49999987	     -7.13501368	      3.91011863	     -0.22909977	     46.22364772	     11.91135512	     66.03220456	    125.20508765	     87.69810115	     36.36635624	      5.44857007	     61.11888225	    124.12909211	     78.01901656
      5.56666670	      3.72148743	     -5.70702455	      1.45086904	      0.17954238	      0.87431476	      0.01309108	     28.64269958	      2.34193047	     -4.42765843	     15.15301030	      0.26446992	     -3.24793142	     -2.21566352	     -7.49999987	      2.06465271	      0.85630317	     -3.27205746	      9.30581347	      0.16241708	     15.25487642	      7.31431098	     -7.49999987	     -7.52191592	      3.94825374	     -0.31653898	     46.45139583	     12.07057959	     66.35339078	    125.20905014	     87.61029263	     36.60326802	      4.94983595	     60.55534189	    123.94336655	     77.92719786
      5.58333330	      3.64047411	     -5.73286573	      1.47466693	      0.17879477	      0.87517920	      0.01331526	     28.89099572	      2.43235811	     -4.44956914	     15.28522462	      0.26677750	     -3.24747734	     -2.27093914	     -7.49999987	      2.07841357	      0.85393724	     -3.29357296	      9.29299160	      0.16219330	     15.22369025	      7.61362283	     -7.49999987	     -7.39403685	      4.07037233	     -0.29712503	     46.50621021	     12.37510634	     66.47936842	    124.88867495	     92.50655650	     36.12472288	      5.16386206	     60.33844796	    123.95399024	     82.53361263
      5.60000000	      3.61738152	     -5.68251024	      1.61423511	      0.17801507	      0.87490498	      0.01442524	     29.02532792	      2.47699485	     -4.42666551	     15.26418463	      0.26641028	     -2.97342541	     -2.09345767	     -7.49999987	      2.04542859	      0.93401430	     -3.18907580	      9.25895897	      0.16159932	     15.10126208	      7.64685295	     -7.49999987	     -7.40296669	      4.00631708	     -0.28844537	     46.78900685	     12.62761358	     66.75505872	    124.97707854	     91.19106974	     36.26234885	      5.28522850	     60.75747086	    124.19544522	     81.32623210
      5.61666670	      3.60994586	     -5.64928591	      1.81001881	      0.17959844	      0.87508615	      0.01291985	     29.06312402	      2.49398762	     -4.39576565	     15.17299943	      0.26481880	     -2.67323394	     -1.98618055	     -7.49999987	      2.00975457	      0.96892431	     -2.78227744	      9.12424026	      0.15924803	     15.24342101	      7.74624002	     -7.49999987	     -7.34240595	      3.90052692	     -0.51496823	     46.73712189	     12.72634742	     67.07353781	    125.33780796	     90.47308290	     36.35766584	      5.03559642	     60.53510589	    124.15205966	     80.45980259
      5.63333330	      3.76324341	     -5.62259231	      1.98876319	      0.17830971	      0.87515466	      0.01322062	     28.86392305	      2.58534738	     -4.43354894	     14.95309687	      0.26098077	     -2.44259699	     -1.69215923	     -7.49999987	      1.82305234	      0.96694825	     -2.66941536	      8.89488835	      0.15524509	     15.44236894	      7.94581524	     -7.49999987	     -7.45558281	      3.87858025	     -0.43185326	     46.96021398	     12.78756955	     67.14397384	    125.20367786	     89.10650520	     36.54390353	      5.33714906	     61.00472741	    124.37556315	     79.31930923
      5.65000000	      3.64317049	     -5.64746587	      2.17930429	      0.17876212	      0.87488473	      0.01236261	     29.02555790	      2.62049012	     -4.57125924	     14.73829784	      0.25723182	     -2.44546989	     -1.41029348	     -7.49999987	      1.88251768	      1.00906907	     -2.34471178	      8.74613276	      0.15264881	     15.26112538	      8.02921982	     -7.49999987	     -7.23029658	      3.88409537	     -0.48002181	     46.89474674	     12.81655239	     67.08248055	    125.33183514	     88.40071076	     36.59068147	      5.41318700	     60.87270137	    124.52550055	     78.87672257
      5.66666670	      3.72824292	     -5.60433080	      2.41528921	      0.17917755	      0.87345672	      0.01299542	     28.86961025	      2.65053306	     -4.63990056	     14.37258771	      0.25084898	     -2.37407069	     -1.05097571	     -7.49999987	      1.66910219	      1.05609641	     -2.22895633	      8.51905020	      0.14868548	     15.35824447	      8.41388186	     -7.49999987	     -7.05584393	      3.83210691	     -0.36321164	     46.77002130	     12.79207518	     66.64076470	    125.04672731	     92.68552350	     36.45675760	      5.63544541	     60.69872760	    124.38803573	     82.35199470
      5.68333330	      3.85236315	     -5.57088682	      2.68679800	      0.18075866	      0.87497729	      0.01178288	     28.71659350	      2.61718607	     -4.58925284	     14.30680289	      0.24970082	     -2.17777968	     -0.88178285	     -7.49999987	      1.50123126	      1.09593384	     -2.02418207	      8.49107407	      0.14819720	     15.50965739	      8.33212513	     -7.49999987	     -7.11521503	      3.81482390	     -0.54344677	     46.82589802	     12.70690537	     66.82932071	    124.91657123	     90.54140617	     36.52884683	      5.50258772	     60.70423670	    124.40779811	     80.86059972
      5.70000000	      3.85322978	     -5.60977937	      2.86967058	      0.18073820	      0.87322666	      0.01181568	     28.82135223	      2.65505677	     -4.51960588	     14.44788360	      0.25216314	     -1.92011561	     -0.97458200	     -7.49999987	      1.56210195	      1.04517470	     -1.92535436	      8.67910584	      0.15147897	     15.88633517	      8.23046876	     -7.49999987	     -7.04895818	      3.78613130	     -0.69326975	     46.74001230	     12.71841312	     66.76314138	    125.05548508	     90.13625122	     36.55924684	      5.64830836	     60.70935573	    124.55971977	     80.66584398
      5.71666670	      3.99843358	     -5.60192798	      3.11646778	      0.18138632	      0.87315142	      0.01171771	     28.73499527	      2.62971804	     -4.69141254	     14.36115521	      0.25064944	     -1.95483200	     -1.22581602	     -7.49999987	      1.34289432	      1.08254973	     -1.89842418	      8.68845706	      0.15164218	     15.93159488	      8.26216688	     -7.49999987	     -7.26830817	      3.82147699	     -0.81455531	     46.63925216	     12.61860686	     66.92051648	    125.35250118	     89.61708752	     36.66587854	      5.12024977	     59.85441851	    124.36461119	     80.08674233
